3100 0 1 0           
17 Abaqus 2022 - 310 12 ACIS 31.0 NT 24 Fri Feb  9 09:53:00 2024 
1 9.9999999999999995e-07 1e-10 
T @77 KW55B5Y6ZJ2FSMN8WGKATSTR94DV7FNXCAQBRE5FBBMKK8Q8UBTUQGP77APVPA7B79PUMGQVP84CF 
-0 body $1 -1 -1 $-1 0 $2 $-1 $3 T -3.5527136788005009e-15 0 0 520 228.59999999999999 6.3000000000000007 #
-1 string_attrib-name_attrib-gen-attrib $-1 -1 $-1 $-1 $0 2 1 1 1 1 1 1 1 1 1 1 1 1 1 0 1 1 1 @18 HKS_ATTRIB_BODY_ID @1 1 #
-2 lump $4 -1 -1 $-1 $-1 $5 $0 T -3.5527136788005009e-15 0 0 520 228.59999999999999 6.3000000000000007 #
-3 transform $-1 -1 1 0 0 0 1 0 0 0 1 0 0 0 1 no_rotate no_reflect no_shear #
-4 cell_ptr-ct-attrib $-1 -1 $-1 $-1 $2 1 1 1 1 1 1 1 1 1 1 1 1 0 1 0 1 1 1 $6 $-1 auto #
-5 shell $-1 -1 -1 $-1 $-1 $-1 $7 $-1 $2 T -3.5527136788005009e-15 0 0 520 228.59999999999999 6.3000000000000007 #
-6 cell3d-cell $-1 -1 $-1 $2 $-1 1 $8 #
-7 face $9 -1 -1 $-1 $10 $11 $5 $-1 $12 forward single T 140 88.599999999999994 6.2999999999999998 200 148.59999999999999 6.3000000000000007 F #
-8 cshell $-1 -1 $-1 $13 $6 #
-9 cface_ptr-ct-attrib $-1 -1 $-1 $-1 $7 1 1 1 1 1 1 1 1 1 1 1 1 0 1 0 1 1 1 $-1 $14 #
-10 face $15 -1 -1 $-1 $16 $17 $5 $-1 $12 forward single T -3.5527136788005009e-15 88.599999999999994 6.2999999999999998 60 148.59999999999999 6.3000000000000007 F #
-11 loop $-1 -1 -1 $-1 $18 $19 $7 T 140 88.599999999999994 6.3000000000000007 200 148.59999999999999 6.3000000000000007 periphery $12 F #
-12 plane-surface $-1 -1 -1 $-1 260 114.30000000000001 6.2999999999999998 0 0 1 1 0 0 forward_v I I I I #
-13 cface $-1 -1 $20 $8 $21 0 #
-14 cface $-1 -1 $22 $8 $7 0 #
-15 cface_ptr-ct-attrib $-1 -1 $-1 $-1 $10 1 1 1 1 1 1 1 1 1 1 1 1 0 1 0 1 1 1 $-1 $22 #
-16 face $23 -1 -1 $-1 $24 $25 $5 $-1 $12 forward single T -3.5527136788005009e-15 0 6.2999999999999998 520 228.59999999999999 6.3000000000000007 F #
-17 loop $-1 -1 -1 $-1 $26 $27 $10 T -3.5527136788005009e-15 88.599999999999994 6.2999999999999998 60 148.59999999999999 6.3000000000000007 periphery $12 F #
-18 loop $-1 -1 -1 $-1 $-1 $28 $7 T 161 109.60000000000001 6.2999999999999998 179 127.59999999999998 6.2999999999999998 hole $12 F #
-19 coedge $-1 -1 -1 $-1 $19 $19 $29 $30 forward $11 $-1 #
-20 cface $-1 -1 $31 $8 $32 0 #
-21 face $33 -1 -1 $-1 $32 $34 $5 $-1 $35 forward single T 161 109.60000000000001 0 179 127.59999999999998 6.2999999999999998 F #
-22 cface $-1 -1 $36 $8 $10 0 #
-23 cface_ptr-ct-attrib $-1 -1 $-1 $-1 $16 1 1 1 1 1 1 1 1 1 1 1 1 0 1 0 1 1 1 $-1 $37 #
-24 face $38 -1 -1 $-1 $39 $40 $5 $-1 $41 forward single T 0 0 0 0 228.59999999999999 6.2999999999999998 F #
-25 loop $-1 -1 -1 $-1 $42 $43 $16 T -3.5527136788005009e-15 0 6.2999999999999998 520 228.59999999999999 6.3000000000000007 periphery $12 F #
-26 loop $-1 -1 -1 $-1 $-1 $44 $10 T 21 109.59999999999999 6.2999999999999998 39 127.59999999999999 6.2999999999999998 hole $12 F #
-27 coedge $-1 -1 -1 $-1 $45 $45 $46 $47 forward $17 $-1 #
-28 coedge $-1 -1 -1 $-1 $28 $28 $48 $49 reversed $18 $-1 #
-29 coedge $-1 -1 -1 $-1 $29 $29 $19 $30 reversed $42 $-1 #
-30 edge $-1 -1 -1 $-1 $50 -0.79942712639087832 $50 5.4837581807887084 $19 $51 forward @7 unknown T 140 88.599999999999994 6.3000000000000007 200 148.59999999999999 6.3000000000000007 #
-31 cface $-1 -1 $14 $8 $52 0 #
-32 face $53 -1 -1 $-1 $52 $54 $5 $-1 $55 forward single T 21 109.59999999999999 0 39 127.59999999999999 6.2999999999999998 F #
-33 cface_ptr-ct-attrib $-1 -1 $-1 $-1 $21 1 1 1 1 1 1 1 1 1 1 1 1 0 1 0 1 1 1 $-1 $13 #
-34 loop $-1 -1 -1 $-1 $56 $48 $21 T 161 109.60000000000001 6.2999999999999998 179 127.59999999999998 6.2999999999999998 u_sep $35 F #
-35 cone-surface $-1 -1 -1 $-1 170 118.59999999999999 0 0 0 1 8.9999999999999893 0 0 1 I I 0 -1 8.9999999999999893 forward I I I I #
-36 cface $-1 -1 $57 $8 $58 0 #
-37 cface $-1 -1 $59 $8 $16 0 #
-38 cface_ptr-ct-attrib $-1 -1 $-1 $-1 $24 1 1 1 1 1 1 1 1 1 1 1 1 0 1 0 1 1 1 $-1 $57 #
-39 face $60 -1 -1 $-1 $61 $62 $5 $-1 $63 forward single T 0 228.59999999999999 0 520 228.59999999999999 6.2999999999999998 F #
-40 loop $-1 -1 -1 $-1 $-1 $64 $24 T 0 0 0 0 228.59999999999999 6.2999999999999998 periphery $41 F #
-41 plane-surface $-1 -1 -1 $-1 0 114.3 0 -1 0 0 -0 -1 -0 forward_v I I I I #
-42 loop $-1 -1 -1 $-1 $-1 $29 $16 T 140 88.599999999999994 6.3000000000000007 200 148.59999999999999 6.3000000000000007 hole $12 F #
-43 coedge $-1 -1 -1 $-1 $65 $46 $64 $66 reversed $25 $-1 #
-44 coedge $-1 -1 -1 $-1 $44 $44 $67 $68 reversed $26 $-1 #
-45 coedge $-1 -1 -1 $-1 $27 $27 $69 $70 forward $17 $-1 #
-46 coedge $-1 -1 -1 $-1 $43 $69 $27 $47 reversed $25 $-1 #
-47 edge $-1 -1 -1 $-1 $71 0 $72 4.2083349520645088 $27 $73 forward @7 unknown T -3.5527136788005009e-15 88.599999999999994 6.2999999999999998 60 144.86895252743892 6.3000000000000007 #
-48 coedge $-1 -1 -1 $-1 $48 $48 $28 $49 forward $34 $-1 #
-49 edge $-1 -1 -1 $-1 $74 -2.4270262628814629 $74 3.8561590442981233 $48 $75 forward @7 unknown T 161 109.60000000000001 6.2999999999999998 179 127.59999999999998 6.2999999999999998 #
-50 vertex $-1 -1 -1 $-1 $30 $76 #
-51 ellipse-curve $-1 -1 -1 $-1 170 118.59999999999999 6.3000000000000007 0 0 1 -30.000000000000004 0 0 1 I I #
-52 face $77 -1 -1 $-1 $58 $78 $5 $-1 $79 forward single T 481 109.59999999999999 0 499 127.59999999999999 6.2999999999999998 F #
-53 cface_ptr-ct-attrib $-1 -1 $-1 $-1 $32 1 1 1 1 1 1 1 1 1 1 1 1 0 1 0 1 1 1 $-1 $20 #
-54 loop $-1 -1 -1 $-1 $80 $67 $32 T 21 109.59999999999999 6.2999999999999998 39 127.59999999999999 6.2999999999999998 u_sep $55 F #
-55 cone-surface $-1 -1 -1 $-1 30 118.59999999999999 0 0 0 1 8.9999999999999982 0 0 1 I I 0 -1 8.9999999999999982 forward I I I I #
-56 loop $-1 -1 -1 $-1 $-1 $81 $21 T 161 109.60000000000001 0 179 127.59999999999998 0 u_sep $35 F #
-57 cface $-1 -1 $82 $8 $24 0 #
-58 face $83 -1 -1 $-1 $84 $85 $5 $-1 $12 forward single T 460 88.59999999999998 6.2999999999999998 520 148.60000000000002 6.3000000000000007 F #
-59 cface $-1 -1 $-1 $8 $61 0 #
-60 cface_ptr-ct-attrib $-1 -1 $-1 $-1 $39 1 1 1 1 1 1 1 1 1 1 1 1 0 1 0 1 1 1 $-1 $82 #
-61 face $86 -1 -1 $-1 $87 $88 $5 $-1 $89 forward single T 520 0 0 520 228.59999999999999 6.2999999999999998 F #
-62 loop $-1 -1 -1 $-1 $-1 $90 $39 T 0 228.59999999999999 0 520 228.59999999999999 6.2999999999999998 periphery $63 F #
-63 plane-surface $-1 -1 -1 $-1 260 228.59999999999999 0 0 1 0 -1 -0 -0 forward_v I I I I #
-64 coedge $-1 -1 -1 $-1 $91 $92 $43 $66 forward $40 $-1 #
-65 coedge $-1 -1 -1 $-1 $93 $43 $94 $95 reversed $25 $-1 #
-66 edge $-1 -1 -1 $-1 $96 0 $71 118.59999999999999 $64 $97 forward @7 unknown T 0 0 6.2999999999999998 0 118.59999999999999 6.2999999999999998 #
-67 coedge $-1 -1 -1 $-1 $67 $67 $44 $68 forward $54 $-1 #
-68 edge $-1 -1 -1 $-1 $98 1.1285849437450626 $98 7.4117702509246488 $67 $99 forward @7 unknown T 21 109.59999999999999 6.2999999999999998 39 127.59999999999999 6.2999999999999998 #
-69 coedge $-1 -1 -1 $-1 $46 $100 $45 $70 reversed $25 $-1 #
-70 edge $-1 -1 -1 $-1 $72 -2.0748503551150774 $71 0 $45 $101 forward @7 unknown T -3.5527136788005009e-15 118.59999999999999 6.2999999999999998 44.489380011275848 148.59999999999999 6.3000000000000007 #
-71 vertex $-1 -1 -1 $-1 $102 $103 #
-72 vertex $-1 -1 -1 $-1 $70 $104 #
-73 ellipse-curve $-1 -1 -1 $-1 30 118.59999999999999 6.3000000000000007 0 0 1 -30.000000000000004 0 0 1 I I #
-74 vertex $-1 -1 -1 $-1 $49 $105 #
-75 ellipse-curve $-1 -1 -1 $-1 170 118.59999999999999 6.2999999999999998 0 0 1 8.9999999999999893 0 0 1 I I #
-76 point $-1 -1 -1 $-1 149.08647351879642 140.10870544965451 6.3000000000000007 #
-77 cface_ptr-ct-attrib $-1 -1 $-1 $-1 $52 1 1 1 1 1 1 1 1 1 1 1 1 0 1 0 1 1 1 $-1 $31 #
-78 loop $-1 -1 -1 $-1 $106 $107 $52 T 481 109.59999999999999 6.2999999999999998 499 127.59999999999999 6.2999999999999998 u_sep $79 F #
-79 cone-surface $-1 -1 -1 $-1 490 118.59999999999999 0 0 0 1 8.9999999999999947 0 0 1 I I 0 -1 8.9999999999999947 forward I I I I #
-80 loop $-1 -1 -1 $-1 $-1 $108 $32 T 21 109.59999999999999 0 39 127.59999999999999 0 u_sep $55 F #
-81 coedge $-1 -1 -1 $-1 $81 $81 $109 $110 reversed $56 $-1 #
-82 cface $-1 -1 $111 $8 $39 0 #
-83 cface_ptr-ct-attrib $-1 -1 $-1 $-1 $58 1 1 1 1 1 1 1 1 1 1 1 1 0 1 0 1 1 1 $-1 $36 #
-84 face $112 -1 -1 $-1 $-1 $113 $5 $-1 $114 reversed single T 0 0 0 520 228.59999999999999 0 F #
-85 loop $-1 -1 -1 $-1 $115 $116 $58 T 460 88.59999999999998 6.2999999999999998 520 148.60000000000002 6.3000000000000007 periphery $12 F #
-86 cface_ptr-ct-attrib $-1 -1 $-1 $-1 $61 1 1 1 1 1 1 1 1 1 1 1 1 0 1 0 1 1 1 $-1 $59 #
-87 face $117 -1 -1 $-1 $21 $118 $5 $-1 $119 forward single T 0 0 0 520 0 6.2999999999999998 F #
-88 loop $-1 -1 -1 $-1 $-1 $120 $61 T 520 0 0 520 228.59999999999999 6.2999999999999998 periphery $89 F #
-89 plane-surface $-1 -1 -1 $-1 520 114.3 0 1 0 -0 -0 1 -0 forward_v I I I I #
-90 coedge $-1 -1 -1 $-1 $121 $122 $123 $124 forward $62 $-1 #
-91 coedge $-1 -1 -1 $-1 $125 $64 $100 $102 forward $40 $-1 #
-92 coedge $-1 -1 -1 $-1 $64 $126 $127 $128 forward $40 $-1 #
-93 coedge $-1 -1 -1 $-1 $129 $65 $130 $131 reversed $25 $-1 #
-94 coedge $-1 -1 -1 $-1 $127 $132 $65 $95 forward $118 $-1 #
-95 edge $-1 -1 -1 $-1 $133 0 $96 520 $94 $134 forward @7 unknown T 0 0 6.2999999999999998 520 0 6.2999999999999998 #
-96 vertex $-1 -1 -1 $-1 $128 $135 #
-97 straight-curve $-1 -1 -1 $-1 0 0 6.2999999999999998 0 1 0 I I #
-98 vertex $-1 -1 -1 $-1 $68 $136 #
-99 ellipse-curve $-1 -1 -1 $-1 30 118.59999999999999 6.2999999999999998 0 0 1 8.9999999999999982 0 0 1 I I #
-100 coedge $-1 -1 -1 $-1 $69 $123 $91 $102 reversed $25 $-1 #
-101 ellipse-curve $-1 -1 -1 $-1 30 118.59999999999999 6.3000000000000007 0 0 1 -30.000000000000004 0 0 1 I I #
-102 edge $-1 -1 -1 $-1 $71 118.59999999999999 $137 228.59999999999999 $91 $97 forward @7 unknown T 0 118.59999999999999 6.2999999999999998 0 228.59999999999999 6.2999999999999998 #
-103 point $-1 -1 -1 $-1 0 118.59999999999999 6.2999999999999998 #
-104 point $-1 -1 -1 $-1 44.489380011275841 144.86895252743892 6.3000000000000007 #
-105 point $-1 -1 -1 $-1 163.20160293180996 112.70239054334513 6.2999999999999998 #
-106 loop $-1 -1 -1 $-1 $-1 $138 $52 T 481 109.59999999999999 0 499 127.59999999999999 0 u_sep $79 F #
-107 coedge $-1 -1 -1 $-1 $107 $107 $139 $140 forward $78 $-1 #
-108 coedge $-1 -1 -1 $-1 $108 $108 $141 $142 reversed $80 $-1 #
-109 coedge $-1 -1 -1 $-1 $109 $109 $81 $110 forward $143 $-1 #
-110 edge $-1 -1 -1 $-1 $144 -2.4270262628814629 $144 3.8561590442981233 $81 $145 forward @7 unknown T 161 109.60000000000001 0 179 127.59999999999998 0 #
-111 cface $-1 -1 $146 $8 $84 0 #
-112 cface_ptr-ct-attrib $-1 -1 $-1 $-1 $84 1 1 1 1 1 1 1 1 1 1 1 1 0 1 0 1 1 1 $-1 $111 #
-113 loop $-1 -1 -1 $-1 $147 $148 $84 T 481 109.59999999999999 0 499 127.59999999999999 0 hole $114 T #
-114 plane-surface $-1 -1 -1 $-1 260 114.30000000000001 0 0 0 1 1 0 0 forward_v I I I I #
-115 loop $-1 -1 -1 $-1 $-1 $139 $58 T 481 109.59999999999999 6.2999999999999998 499 127.59999999999999 6.2999999999999998 hole $12 F #
-116 coedge $-1 -1 -1 $-1 $149 $149 $150 $151 forward $85 $-1 #
-117 cface_ptr-ct-attrib $-1 -1 $-1 $-1 $87 1 1 1 1 1 1 1 1 1 1 1 1 0 1 0 1 1 1 $-1 $146 #
-118 loop $-1 -1 -1 $-1 $-1 $94 $87 T 0 0 0 520 0 6.2999999999999998 periphery $119 F #
-119 plane-surface $-1 -1 -1 $-1 260 0 0 0 -1 0 1 -0 -0 forward_v I I I I #
-120 coedge $-1 -1 -1 $-1 $130 $152 $153 $154 forward $88 $-1 #
-121 coedge $-1 -1 -1 $-1 $155 $90 $152 $156 reversed $62 $-1 #
-122 coedge $-1 -1 -1 $-1 $90 $155 $125 $157 forward $62 $-1 #
-123 coedge $-1 -1 -1 $-1 $100 $153 $90 $124 reversed $25 $-1 #
-124 edge $-1 -1 -1 $-1 $137 0 $158 520 $90 $159 forward @7 unknown T 0 228.59999999999999 6.2999999999999998 520 228.59999999999999 6.2999999999999998 #
-125 coedge $-1 -1 -1 $-1 $126 $91 $122 $157 reversed $40 $-1 #
-126 coedge $-1 -1 -1 $-1 $92 $125 $160 $161 reversed $40 $-1 #
-127 coedge $-1 -1 -1 $-1 $162 $94 $92 $128 reversed $118 $-1 #
-128 edge $-1 -1 -1 $-1 $163 0 $96 6.2999999999999998 $92 $164 forward @7 unknown T 0 0 0 0 0 6.2999999999999998 #
-129 coedge $-1 -1 -1 $-1 $150 $93 $149 $165 reversed $25 $-1 #
-130 coedge $-1 -1 -1 $-1 $166 $120 $93 $131 forward $88 $-1 #
-131 edge $-1 -1 -1 $-1 $167 110 $133 228.59999999999999 $130 $168 forward @7 unknown T 520 0 6.2999999999999998 520 118.59999999999999 6.2999999999999998 #
-132 coedge $-1 -1 -1 $-1 $94 $162 $166 $169 forward $118 $-1 #
-133 vertex $-1 -1 -1 $-1 $169 $170 #
-134 straight-curve $-1 -1 -1 $-1 520 0 6.2999999999999998 -1 0 0 I I #
-135 point $-1 -1 -1 $-1 0 0 6.2999999999999998 #
-136 point $-1 -1 -1 $-1 33.851452570142825 126.73426782814164 6.2999999999999998 #
-137 vertex $-1 -1 -1 $-1 $157 $171 #
-138 coedge $-1 -1 -1 $-1 $138 $138 $148 $172 reversed $106 $-1 #
-139 coedge $-1 -1 -1 $-1 $139 $139 $107 $140 reversed $115 $-1 #
-140 edge $-1 -1 -1 $-1 $173 -1.6424096643275807 $173 4.6407756428520059 $107 $174 forward @7 unknown T 481 109.59999999999999 6.2999999999999998 499 127.59999999999999 6.2999999999999998 #
-141 coedge $-1 -1 -1 $-1 $141 $141 $108 $142 forward $147 $-1 #
-142 edge $-1 -1 -1 $-1 $175 1.1285849437450626 $175 7.4117702509246488 $108 $176 forward @7 unknown T 21 109.59999999999999 0 39 127.59999999999999 0 #
-143 loop $-1 -1 -1 $-1 $177 $109 $84 T 161 109.60000000000001 0 179 127.59999999999998 0 hole $114 T #
-144 vertex $-1 -1 -1 $-1 $110 $178 #
-145 ellipse-curve $-1 -1 -1 $-1 170 118.59999999999999 0 0 0 1 8.9999999999999893 0 0 1 I I #
-146 cface $-1 -1 $37 $8 $87 0 #
-147 loop $-1 -1 -1 $-1 $143 $141 $84 T 21 109.59999999999999 0 39 127.59999999999999 0 hole $114 T #
-148 coedge $-1 -1 -1 $-1 $148 $148 $138 $172 forward $113 $-1 #
-149 coedge $-1 -1 -1 $-1 $116 $116 $129 $165 forward $85 $-1 #
-150 coedge $-1 -1 -1 $-1 $153 $129 $116 $151 reversed $25 $-1 #
-151 edge $-1 -1 -1 $-1 $167 -3.1415926535897931 $179 -0.61737478960353465 $116 $180 forward @7 unknown T 465.53797030176622 118.59999999999999 6.2999999999999998 520 148.60000000000002 6.3000000000000007 #
-152 coedge $-1 -1 -1 $-1 $120 $181 $121 $156 forward $88 $-1 #
-153 coedge $-1 -1 -1 $-1 $123 $150 $120 $154 reversed $25 $-1 #
-154 edge $-1 -1 -1 $-1 $158 0 $167 110 $120 $168 forward @7 unknown T 520 118.59999999999999 6.2999999999999998 520 228.59999999999999 6.2999999999999998 #
-155 coedge $-1 -1 -1 $-1 $122 $121 $182 $183 reversed $62 $-1 #
-156 edge $-1 -1 -1 $-1 $184 0 $158 6.2999999999999998 $152 $185 forward @7 unknown T 520 228.59999999999999 0 520 228.59999999999999 6.2999999999999998 #
-157 edge $-1 -1 -1 $-1 $186 0 $137 6.2999999999999998 $122 $187 forward @7 unknown T 0 228.59999999999999 0 0 228.59999999999999 6.2999999999999998 #
-158 vertex $-1 -1 -1 $-1 $156 $188 #
-159 straight-curve $-1 -1 -1 $-1 0 228.59999999999999 6.2999999999999998 1 0 0 I I #
-160 coedge $-1 -1 -1 $-1 $182 $189 $126 $161 forward $177 $-1 #
-161 edge $-1 -1 -1 $-1 $163 0 $186 228.59999999999999 $126 $190 forward @7 unknown T 0 0 0 0 228.59999999999999 0 #
-162 coedge $-1 -1 -1 $-1 $132 $127 $189 $191 reversed $118 $-1 #
-163 vertex $-1 -1 -1 $-1 $191 $192 #
-164 straight-curve $-1 -1 -1 $-1 0 0 0 0 0 1 I I #
-165 edge $-1 -1 -1 $-1 $179 -0.61737478960353465 $167 3.1415926535897931 $129 $193 forward @7 unknown T 460 88.59999999999998 6.2999999999999998 520 135.96689675914291 6.3000000000000007 #
-166 coedge $-1 -1 -1 $-1 $181 $130 $132 $169 reversed $88 $-1 #
-167 vertex $-1 -1 -1 $-1 $131 $194 #
-168 straight-curve $-1 -1 -1 $-1 520 228.59999999999999 6.2999999999999998 0 -1 0 I I #
-169 edge $-1 -1 -1 $-1 $195 0 $133 6.2999999999999998 $132 $196 forward @7 unknown T 520 0 0 520 0 6.2999999999999998 #
-170 point $-1 -1 -1 $-1 520 0 6.2999999999999998 #
-171 point $-1 -1 -1 $-1 0 228.59999999999999 6.2999999999999998 #
-172 edge $-1 -1 -1 $-1 $197 -1.6424096643275807 $197 4.6407756428520059 $138 $198 forward @7 unknown T 481 109.59999999999999 0 499 127.59999999999999 0 #
-173 vertex $-1 -1 -1 $-1 $140 $199 #
-174 ellipse-curve $-1 -1 -1 $-1 490 118.59999999999999 6.2999999999999998 0 0 1 8.9999999999999947 0 0 1 I I #
-175 vertex $-1 -1 -1 $-1 $142 $200 #
-176 ellipse-curve $-1 -1 -1 $-1 30 118.59999999999999 0 0 0 1 8.9999999999999982 0 0 1 I I #
-177 loop $-1 -1 -1 $-1 $-1 $189 $84 T 0 0 0 520 228.59999999999999 0 periphery $114 T #
-178 point $-1 -1 -1 $-1 163.20160293180996 112.70239054334513 0 #
-179 vertex $-1 -1 -1 $-1 $151 $201 #
-180 ellipse-curve $-1 -1 -1 $-1 490 118.59999999999999 6.3000000000000007 0 0 1 -30.000000000000014 0 0 1 I I #
-181 coedge $-1 -1 -1 $-1 $152 $166 $202 $203 reversed $88 $-1 #
-182 coedge $-1 -1 -1 $-1 $202 $160 $155 $183 forward $177 $-1 #
-183 edge $-1 -1 -1 $-1 $186 0 $184 520 $155 $204 forward @7 unknown T 0 228.59999999999999 0 520 228.59999999999999 0 #
-184 vertex $-1 -1 -1 $-1 $203 $205 #
-185 straight-curve $-1 -1 -1 $-1 520 228.59999999999999 0 0 0 1 I I #
-186 vertex $-1 -1 -1 $-1 $183 $206 #
-187 straight-curve $-1 -1 -1 $-1 0 228.59999999999999 0 0 0 1 I I #
-188 point $-1 -1 -1 $-1 520 228.59999999999999 6.2999999999999998 #
-189 coedge $-1 -1 -1 $-1 $160 $202 $162 $191 forward $177 $-1 #
-190 straight-curve $-1 -1 -1 $-1 0 0 0 0 1 0 I I #
-191 edge $-1 -1 -1 $-1 $195 0 $163 520 $162 $207 forward @7 unknown T 0 0 0 520 0 0 #
-192 point $-1 -1 -1 $-1 0 0 0 #
-193 ellipse-curve $-1 -1 -1 $-1 490 118.59999999999999 6.3000000000000007 0 0 1 -30.000000000000014 0 0 1 I I #
-194 point $-1 -1 -1 $-1 520 118.59999999999999 6.2999999999999998 #
-195 vertex $-1 -1 -1 $-1 $191 $208 #
-196 straight-curve $-1 -1 -1 $-1 520 0 0 0 0 1 I I #
-197 vertex $-1 -1 -1 $-1 $172 $209 #
-198 ellipse-curve $-1 -1 -1 $-1 490 118.59999999999999 0 0 0 1 8.9999999999999947 0 0 1 I I #
-199 point $-1 -1 -1 $-1 489.3560307212511 109.62306825424034 6.2999999999999998 #
-200 point $-1 -1 -1 $-1 33.851452570142825 126.73426782814164 0 #
-201 point $-1 -1 -1 $-1 465.53797030176622 135.96689675914288 6.3000000000000007 #
-202 coedge $-1 -1 -1 $-1 $189 $182 $181 $203 forward $177 $-1 #
-203 edge $-1 -1 -1 $-1 $184 0 $195 228.59999999999999 $181 $210 forward @7 unknown T 520 0 0 520 228.59999999999999 0 #
-204 straight-curve $-1 -1 -1 $-1 0 228.59999999999999 0 1 0 0 I I #
-205 point $-1 -1 -1 $-1 520 228.59999999999999 0 #
-206 point $-1 -1 -1 $-1 0 228.59999999999999 0 #
-207 straight-curve $-1 -1 -1 $-1 520 0 0 -1 0 0 I I #
-208 point $-1 -1 -1 $-1 520 0 0 #
-209 point $-1 -1 -1 $-1 489.3560307212511 109.62306825424034 0 #
-210 straight-curve $-1 -1 -1 $-1 520 228.59999999999999 0 0 -1 0 I I #
End-of-ACIS-data 
